# xmcd CD database file generated by OrangeCD 5.2
#
# Track frame offsets:
#	150
#	14512
#	28687
#	41500
#	54780
#	70550
#	82837
#	94755
#	106400
#	120780
#	136582
#	150965
#	163700
#	174860
#	187000
#	199750
#
# Disc length: 2824 seconds
#
# Revision: 2
# Processed by: cddbd v1.5.1PL0 Copyright (c) Steve Scherf et al.
# Submitted via: OrangeCD 5.2
#
DISCID=b20b0610
DTITLE=Sten och Stanley - Musik, Dans och Party 8
DYEAR=1993
DGENRE=Country
TTITLE0=Rosor doftar alltid som mest när det skymmer
TTITLE1=Snälla du
TTITLE2=Jag skriver sånger
TTITLE3=Hello Josephine
TTITLE4=Är det kärlek på gång
TTITLE5=Nere i hamnen
TTITLE6=När du skrattar och ler
TTITLE7=Blommor och bin
TTITLE8=Är du ensam du som jag
TTITLE9=En så'n underbar känsla
TTITLE10=Sänd inga rosor mer
TTITLE11=Candida
TTITLE12=Glöm inte bort mig
TTITLE13=Blueberry Hill
TTITLE14=Sändag min lediga dag
TTITLE15=Mitt hjärta
EXTD=
EXTT0=
EXTT1=
EXTT2=
EXTT3=
EXTT4=
EXTT5=
EXTT6=
EXTT7=
EXTT8=
EXTT9=
EXTT10=
EXTT11=
EXTT12=
EXTT13=
EXTT14=
EXTT15=
PLAYORDER=
